# xmcd CD database file
#
# Track frame offsets:
#	150
#	28970
#	46505
#	65357
#	92362
#	131830
#	174855
#	208227
#	240725
#
# Disc length: 3751 seconds
#
# Revision: 1
# Processed by: cddbd v1.5.2PL0 Copyright (c) Steve Scherf et al.
# Submitted via: CDex 1.70beta2
#
DISCID=730ea509
DTITLE=VISION QUESTA - SWEETER THAN SWEET
DYEAR=2006
DGENRE=Jazz
TTITLE0=HOLD MY HEART
TTITLE1=REI-KO-JO
TTITLE2=BLOSSOM
TTITLE3=THE WHEEL COMES A FULL CIRCLE
TTITLE4=MAS QUE NADA
TTITLE5=Manji
TTITLE6=First Break
TTITLE7=Hold My Heart(Frankie Feliciano Remix)
TTITLE8=Blossom(Ian Friday&Kevin Hedge Remix)
EXTD=YEAR: 2006
EXTT0=
EXTT1=
EXTT2=
EXTT3=
EXTT4=
EXTT5=
EXTT6=
EXTT7=
EXTT8=
PLAYORDER=
